<?xml version="1.0" encoding="UTF-8"?>
<svg id="_レイヤー_2" data-name="レイヤー 2" xmlns="http://www.w3.org/2000/svg" viewBox="0 0 308.55 27.53">
  <defs>
    <style>
      .cls-1 {
        fill: red;
      }
    </style>
  </defs>
  <g id="_レイヤー_1-2" data-name="レイヤー 1">
    <g>
      <path d="M0,25.58L4.26,1.45h25.65l-3.14,3.32H7.61l-1.3,7.25,15.44.25-2.74,2.89-13.2-.25-1.3,7.39h21.86l-3.14,3.28H0Z"/>
      <path d="M57.34,3.17l4.24-1.72-2.42,13.6c-1.3,7.29-6.56,10.93-15.91,10.93s-13.74-2.81-13.74-8.51c0-.76.04-1.59.22-2.42l2.07-11.64,4.24-1.96-2.42,13.6c-.14.65-.18,1.3-.18,1.88,0,4.04,3.1,5.81,10.39,5.81,8.33,0,10.46-2.27,11.4-7.68l2.11-11.88Z"/>
      <path d="M87.69,25.58l-7.21-7.97h-13.89l-1.37,7.97h-3.9l1.95-11.11h17.28c4.91,0,9.49-1.48,9.49-5.52,0-3.21-3.17-4.18-7.72-4.18h-17.39l3.38-3.32h15.99c5.12,0,9.85,1.88,9.85,6.85s-3.9,8.08-9.49,8.58l8.33,8.69h-5.3Z"/>
      <path d="M110.93,25.98c-9.49,0-14.28-3.17-14.28-10.06,0-9.99,6.1-14.86,18.69-14.86,9.49,0,14.28,3.14,14.28,10.03,0,9.99-6.06,14.9-18.69,14.9ZM114.75,4.33c-10.39,0-14.14,3.21-14.14,11.18,0,5.23,3.46,7.18,10.89,7.18,10.35,0,14.14-3.25,14.14-11.22,0-5.23-3.46-7.14-10.89-7.14Z"/>
      <path class="cls-1" d="M143.9,25.58l2.9-16.58,3.46,2.69-1.86,10.61h11.07c6.13,0,11.33-4.4,11.33-10.1,0-4.36-3.28-7.43-8.22-7.43h-15.01l3.1-3.32h12.48c7,0,11.58,4.11,11.58,10.1,0,7.83-7.21,14.03-15.84,14.03h-15.01Z"/>
      <path class="cls-1" d="M176,25.58l4.26-24.13h25.65l-3.14,3.32h-19.15l-1.3,7.25h15.56l-2.74,2.89h-13.32l-1.3,7.39h21.86l-3.14,3.28h-23.23Z"/>
      <path class="cls-1" d="M202.84,25.58l3.14-3.28h18.94c4.22,0,6.28-1.59,6.28-4.47,0-2.6-2.49-2.92-6.6-2.92h-9.74c-5.38,0-7.94-1.95-7.94-5.45,0-4.91,3.35-8.01,10.97-8.01h19.51l-3.1,3.32h-17.28c-4.18,0-6.28,1.55-6.28,4.44,0,2.49,2.45,2.81,6.6,2.81h9.78c5.19,0,7.86,1.8,7.86,5.38,0,5.09-3.21,8.19-10.93,8.19h-21.21Z"/>
      <path class="cls-1" d="M236.65,27.53l4.48-24.62,4.13-2.91-4.66,24.64-3.95,2.9Z"/>
      <path class="cls-1" d="M258.43,25.58c-7.18,0-11.9-4.51-11.9-10.57,0-7.97,7.29-13.56,16.16-13.56h15.51l-3.1,3.32h-12.99c-6.42,0-11.69,3.97-11.69,10.03,0,4.54,3.43,7.5,8.58,7.5h10.68l1.33-7.61h-14.07l2.92-2.96h15.58l-2.45,13.85h-14.57Z"/>
      <path class="cls-1" d="M284.19,6.32l-3.24,18.4-4.03,2.82,4.24-23.95c.29-1.73,1.41-2.45,2.6-2.45.47,0,1.01.18,1.52.76l16.12,18.79,3.11-17.71,4.06-2.97-4.13,23.34c-.29,1.73-1.41,2.45-2.6,2.45-.51,0-1.05-.11-1.52-.72l-16.12-18.76Z"/>
    </g>
  </g>
</svg>