<?xml version="1.0" encoding="UTF-8"?>
<svg id="_レイヤー_2" data-name="レイヤー 2" xmlns="http://www.w3.org/2000/svg" viewBox="0 0 572.26 704.12">
  <defs>
    <style>
      .cls-1 {
        fill: #3e3a39;
      }

      .cls-2 {
        fill: #fff;
      }

      .cls-3 {
        fill: #409ada;
      }

      .cls-4 {
        fill: #dcdddd;
      }

      .cls-5 {
        fill: #a48b78;
      }
    </style>
  </defs>
  <g id="_レイヤー_1-2" data-name="レイヤー 1">
    <g>
      <g>
        <path class="cls-3" d="M455.5,134.23c-1.87,0-3.7-.93-4.77-2.62-1.67-2.63-.89-6.12,1.74-7.79l21.09-13.38c2.63-1.67,6.12-.89,7.79,1.74,1.67,2.63.89,6.12-1.74,7.79l-21.09,13.38c-.94.59-1.98.88-3.02.88Z"/>
        <path class="cls-3" d="M441.43,116.87c-.93,0-1.86-.23-2.73-.71-2.73-1.51-3.71-4.95-2.2-7.68l10.53-19c1.51-2.73,4.95-3.71,7.68-2.2,2.73,1.51,3.71,4.95,2.2,7.68l-10.53,19c-1.03,1.86-2.96,2.91-4.94,2.91Z"/>
        <path class="cls-3" d="M466.59,154.22c-2.81,0-5.25-2.1-5.6-4.97-.38-3.1,1.83-5.91,4.92-6.29l21.56-2.62c3.09-.38,5.91,1.83,6.29,4.92.38,3.1-1.83,5.91-4.92,6.29l-21.56,2.62c-.23.03-.46.04-.69.04Z"/>
      </g>
      <polygon class="cls-3" points="329.15 304.7 427.46 346.19 413.96 420.1 295.38 422.16 329.15 304.7"/>
      <polygon class="cls-3" points="231.9 306.74 130.17 351.83 143.67 425.73 262.25 427.8 231.9 306.74"/>
      <path class="cls-3" d="M456.77,357.46s29.11,17.08,37.43,36.01l3.33,22.92,7.62,95.26-80.7-1.91,32.32-152.28Z"/>
      <path class="cls-2" d="M236.15,240.34s5.31,45.2,0,65.41l-2.32,40.44,50.63,115.39,48.06-115.28-2.73-32.25-3.45-12.34s-.91-24.72,3.58-48.28l-57.95-20.61-35.82,7.53Z"/>
      <polygon class="cls-3" points="426.9 696.19 429.77 621.71 461 379.87 403.34 335.5 280.38 429.29 151.5 340.55 89.5 379.87 121.5 573.1 123.93 696.19 426.9 696.19"/>
      <path class="cls-2" d="M312.36,47.25s-86.09-38.63-129.13,37.58l-7.39,30.57s-5.07,48.91,21.97,57.81l93.79-26.58,20.76-99.38Z"/>
      <path class="cls-2" d="M386.36,175.9c-9.84-12.12-23.2-4.05-23.2-4.05l-.59-62.53-38.35-20.39-43.97.57-6.02.08-43.97.57-37.82,21.37,1.07,65.35s-12.57-12.08-22.1.29c0,0-12.41,27.13,24.1,51.69,0,0,9.89-2.49,12.26-6.8,0,0,18.28,66.29,71.99,62.68,53.78,2.22,71.13-63.42,71.13-63.42,2.48,4.25,11.66,5.38,11.66,5.38,39.13-25.26,23.82-50.78,23.82-50.78Z"/>
      <path class="cls-2" d="M188.65,168.93s-39.65-78.62,31.93-121.29c0,0,46.03-26.11,94.32,3.09,0,0,72.64,2.24,64.82,74.89l-13.15,48.31-177.93-4.99Z"/>
      <path class="cls-5" d="M313.65,47.72c-90.04-33.88-154.76,58.41-135.21,109.72l6.73,12.97,6.04,2.79,5.03-10.76,24.77-65s37.5,34.07,77.25,23.71l11.66,2.37,23.45.92,20.02,10.67,12.69,34.96,7.63-1.04,1.88-12.74c19.25-101.28-51.73-105.2-51.73-105.2l-10.23-3.37Z"/>
      <path class="cls-4" d="M236.15,269.73s54.41,28.62,85.44-3.43l.15,21.82s-35.93,29.01-81.53,2.26l-4.06-20.64Z"/>
      <path class="cls-1" d="M278.86,290.19c-22.23,0-40.68-13.26-42.96-14.97-30.79-19.86-36.18-63.73-36.39-65.59-.36-3.08,1.86-5.87,4.94-6.23,3.09-.36,5.87,1.86,6.23,4.94.05.4,5.06,40.63,31.47,57.53.14.09.27.18.4.28.17.13,17.5,13.16,37.2,12.78.03,0,.05,0,.08,0,19.84-.11,36.69-13.6,36.86-13.74.13-.1.26-.2.39-.29,25.97-17.57,29.94-57.92,29.98-58.33.28-3.09,3.02-5.36,6.11-5.09,3.09.28,5.37,3.01,5.09,6.1-.17,1.87-4.42,45.86-34.69,66.51-2.27,1.79-20.93,15.94-43.64,16.09-.36,0-.72.01-1.08.01Z"/>
      <path class="cls-1" d="M280.67,241.38c-15.09,0-25.57-6.08-26.23-6.47-2.67-1.59-3.55-5.04-1.96-7.71,1.58-2.66,5.02-3.54,7.69-1.97.82.47,19.43,11.02,41.69-.34,2.77-1.41,6.15-.31,7.56,2.45,1.41,2.77.31,6.15-2.45,7.56-9.51,4.85-18.52,6.47-26.3,6.47Z"/>
      <path class="cls-1" d="M313.48,177.52h0c-4.07.05-7.44-3.23-7.49-7.3h0c-.05-4.07,3.23-7.44,7.3-7.49h0c4.07-.05,7.44,3.23,7.49,7.3h0c.05,4.07-3.23,7.44-7.3,7.49Z"/>
      <path class="cls-1" d="M244.94,178.41h0c-4.07.05-7.44-3.23-7.49-7.3h0c-.05-4.07,3.23-7.44,7.3-7.49h0c4.07-.05,7.44,3.23,7.49,7.3h0c.05,4.07-3.23,7.44-7.3,7.49Z"/>
      <path class="cls-1" d="M280.88,213.51c-.06,0-.11,0-.17,0l-3.43-.1c-3.1-.09-5.54-2.68-5.45-5.79.09-3.1,2.67-5.55,5.79-5.45l3.43.1c3.1.09,5.54,2.68,5.45,5.79-.09,3.05-2.59,5.45-5.62,5.45Z"/>
      <path class="cls-1" d="M197.8,168.01c-1.01,0-2.02-.27-2.94-.83-2.65-1.63-3.47-5.09-1.84-7.74,5.87-9.55,13.57-37.32,16.04-47.21.75-3.01,3.81-4.85,6.82-4.09,3.01.75,4.85,3.8,4.09,6.82-.38,1.52-9.39,37.4-17.37,50.38-1.06,1.73-2.91,2.68-4.79,2.68Z"/>
      <path class="cls-1" d="M183.23,166.06c-1.82,0-3.61-.88-4.69-2.52-4.31-6.5-7.22-13.94-8.63-22.11-.53-3.06,1.52-5.97,4.58-6.5,3.06-.53,5.97,1.52,6.5,4.58,1.15,6.62,3.48,12.62,6.92,17.81,1.72,2.59,1.01,6.08-1.58,7.79-.96.63-2.04.94-3.1.94Z"/>
      <path class="cls-1" d="M361.11,231c-3.61,0-8.55-1.4-12.87-7.49-1.8-2.53-1.2-6.04,1.34-7.84,2.53-1.8,6.04-1.2,7.84,1.34,2.01,2.84,3.39,2.77,3.84,2.75,4.51-.23,11.43-8.9,14.69-14.68.05-.09.11-.19.16-.27,11.39-17.82,5.41-26.68,3.82-28.54-3.47-1.83-6.41-2.1-8.96-.83-1.82.91-2.88,2.33-2.89,2.34-1.71,2.59-5.2,3.31-7.79,1.6-2.59-1.71-3.31-5.2-1.6-7.79,3.38-5.13,13.48-12.73,27.48-4.72.32.19.63.4.91.65.69.6,16.55,14.98-1.42,43.21-2.04,3.6-11.76,19.62-23.82,20.26-.24.01-.49.02-.74.02Z"/>
      <path class="cls-1" d="M197.36,231c3.61,0,8.55-1.4,12.87-7.49,1.8-2.53,1.2-6.04-1.34-7.84-2.53-1.8-6.04-1.2-7.84,1.34-2.01,2.84-3.39,2.77-3.84,2.75-4.51-.23-11.43-8.9-14.69-14.68-.05-.09-.11-.19-.16-.27-11.39-17.82-5.41-26.68-3.82-28.54,3.47-1.83,6.41-2.1,8.96-.83,1.82.91,2.88,2.33,2.89,2.34,1.71,2.59,5.2,3.31,7.79,1.6,2.59-1.71,3.31-5.2,1.6-7.79-3.38-5.13-13.48-12.73-27.48-4.72-.32.19-.63.4-.91.65-.69.6-16.55,14.98,1.42,43.21,2.04,3.6,11.76,19.62,23.82,20.26.24.01.49.02.74.02Z"/>
      <path class="cls-1" d="M234.45,312.36c-.42,0-.85-.05-1.27-.15-3.03-.7-4.91-3.72-4.21-6.75,2.79-12.05,1.58-35.21,1.57-35.44-.17-3.1,2.21-5.75,5.31-5.92,3.08-.18,5.75,2.21,5.92,5.31.05,1.01,1.3,25-1.84,38.58-.6,2.6-2.92,4.36-5.47,4.36Z"/>
      <path class="cls-1" d="M329.15,310.32c-2.56,0-4.87-1.76-5.47-4.36-3.11-13.46-2.96-35.36-2.95-36.28.03-3.09,2.54-5.57,5.62-5.57.02,0,.03,0,.05,0,3.1.03,5.6,2.56,5.57,5.67,0,.21-.15,21.5,2.66,33.65.7,3.03-1.18,6.05-4.21,6.75-.43.1-.85.15-1.27.15Z"/>
      <path class="cls-1" d="M181.09,94.52c-.77,0-1.55-.16-2.3-.5-2.83-1.27-4.09-4.59-2.82-7.42.4-.89,10.05-22.03,32.3-38.11,13.15-9.5,27.96-15.24,44.03-17.07,19.84-2.26,41.56,1.5,64.55,11.18,2.86,1.21,4.21,4.5,3,7.36-1.21,2.86-4.5,4.21-7.36,3-38.05-16.01-70.78-14.54-97.26,4.38-19.97,14.27-28.92,33.67-29,33.87-.94,2.08-2.99,3.31-5.13,3.31Z"/>
      <path class="cls-1" d="M269.98,130.72c-.37,0-.75-.04-1.13-.11-33.15-6.75-49.37-32.67-50.04-33.77-1.62-2.65-.79-6.11,1.86-7.73,2.64-1.62,6.1-.8,7.72,1.84h0c.14.23,14.48,22.89,42.71,28.64,3.04.62,5.01,3.59,4.39,6.63-.54,2.66-2.89,4.5-5.5,4.5Z"/>
      <path class="cls-1" d="M302.58,130.72c-.52,0-1.06-.07-1.59-.23-29.64-8.7-41.15-34.94-41.62-36.06-1.22-2.86.11-6.16,2.96-7.38,2.85-1.22,6.15.1,7.37,2.95h0c.1.22,10.03,22.53,34.46,29.7,2.98.88,4.69,4,3.81,6.98-.72,2.45-2.96,4.04-5.39,4.04Z"/>
      <path class="cls-1" d="M363.03,163.65c-2.31,0-4.47-1.43-5.29-3.73l-7.78-21.75c-25.24-7.52-41.65-33.36-42.37-34.5-1.65-2.63-.85-6.1,1.78-7.75,2.63-1.64,6.1-.85,7.75,1.78h0c.16.25,16.04,25.13,38.4,30.31,1.86.43,3.38,1.78,4.03,3.58l8.78,24.54c1.05,2.92-.48,6.14-3.4,7.19-.63.22-1.27.33-1.89.33Z"/>
      <path class="cls-1" d="M502.26,448.6c-3.11,0-5.62-2.52-5.62-5.62,0-52.27-14.06-62.91-21.61-68.62-.65-.49-1.26-.96-1.82-1.4-2.43-1.94-2.82-5.48-.88-7.9,1.94-2.43,5.48-2.82,7.9-.88.49.39,1.02.79,1.59,1.22,9.11,6.89,26.07,19.72,26.07,77.59,0,3.11-2.52,5.62-5.62,5.62Z"/>
      <path class="cls-1" d="M430.17,704.12c-3.07,0-5.58-2.47-5.62-5.55-.38-30.03-.4-76.39-.4-76.86,0-3.11,2.52-5.62,5.62-5.62h0c3.1,0,5.62,2.52,5.62,5.62,0,.46.02,46.76.4,76.72.04,3.1-2.45,5.65-5.55,5.69h-.07Z"/>
      <path class="cls-1" d="M123.86,704.12c-2.98,0-5.47-2.34-5.61-5.35-5.39-110.85-11.22-256.67-11.28-258.13-.12-3.1,2.29-5.72,5.39-5.84,3.12-.14,5.72,2.29,5.84,5.39.06,1.46,5.89,147.24,11.28,258.03.15,3.1-2.24,5.74-5.34,5.89-.09,0-.19,0-.28,0Z"/>
      <g>
        <path class="cls-3" d="M383.09,134.47l-3.24-59.48c-1.36-18-11.43-34.28-27.09-43.27-21.44-12.31-43.73-19.66-58.2-23.58-11.72-3.18-24.08-3.41-35.83-.34-27.73,7.25-54.52,23.86-68.64,35.32-8.55,6.93-13.97,16.99-15.02,27.94l-5.21,53.99,10.46,9.65s29.12,11.57,61.18-15.03c.52-.43,1.01-.89,1.47-1.38,3.54-3.71,23.96-22.69,59.37-8.6,3.66,1.46,7.08,3.46,10.21,5.86,8.52,6.54,31.29,21.58,55.45,16.93l15.08,1.98Z"/>
        <path class="cls-1" d="M384.54,132.86c-2.88,0-5.33-2.2-5.59-5.12l-4.7-52.33c-1.23-16.29-10.31-30.8-24.28-38.82-20.76-11.92-42.39-19.1-56.87-23.03-10.97-2.98-22.36-3.09-32.93-.32-26.47,6.92-52.38,22.77-66.51,34.24-7.34,5.95-12.07,14.74-12.97,24.12l-5.21,53.99c-.3,3.09-3.06,5.35-6.14,5.06-3.09-.3-5.36-3.05-5.06-6.14l5.21-53.99c1.19-12.35,7.42-23.93,17.08-31.77,15.01-12.18,42.55-29.02,70.76-36.39,12.47-3.26,25.86-3.14,38.72.35,15.12,4.1,37.72,11.62,59.52,24.13,17.19,9.87,28.37,27.69,29.89,47.68l4.69,52.22c.28,3.09-2,5.83-5.1,6.1-.17.02-.34.02-.51.02Z"/>
        <path class="cls-1" d="M180.09,128.08c-.63,0-1.27-.11-1.89-.33-2.93-1.04-4.45-4.27-3.41-7.2.19-.53,4.76-13.04,19.52-26.27,13.29-11.91,37.91-26.9,79.77-30.69,2.82-.26,5.77-.34,8.75-.25,16.3.51,71.32,5.34,94.91,46.36,1.55,2.69.62,6.13-2.07,7.68-2.69,1.55-6.13.62-7.68-2.07-20.69-35.97-70.68-40.27-85.51-40.73-2.53-.08-5.02,0-7.39.21-38.35,3.48-60.71,16.8-72.72,27.37-12.92,11.37-16.97,22.09-17.01,22.2-.82,2.3-2.98,3.73-5.28,3.73Z"/>
        <path class="cls-1" d="M199,142.86c-10.79,0-17.83-2.7-18.44-2.94-2.89-1.15-4.3-4.42-3.15-7.3,1.14-2.88,4.4-4.29,7.28-3.16,1.14.44,26.68,9.82,55.53-14.12.33-.27.67-.59.99-.93,4.16-4.36,26.86-25.32,65.52-9.94,4.03,1.6,7.92,3.83,11.55,6.62,8.04,6.17,29.11,20.07,50.96,15.87,3.05-.59,6,1.41,6.58,4.46.59,3.05-1.41,6-4.46,6.58-26.34,5.07-50.68-10.9-59.93-17.99-2.81-2.16-5.8-3.87-8.86-5.1-31.95-12.71-49.94,3.81-53.23,7.25-.63.66-1.28,1.27-1.95,1.82-18.37,15.25-35.9,18.87-48.4,18.87Z"/>
      </g>
      <path class="cls-1" d="M177.9,524.62l-37.67-10.28c-4.64-.25-8.51-3.69-9.23-8.39l-1.65-10.88c-.47-3.07,1.64-5.94,4.72-6.4,3.07-.47,5.94,1.65,6.4,4.72l1.48,9.77,35.77,9.76,47.21-14.4.68-.04c.38-.02.69-.32.72-.7l1.32-15.38c.04-.52-.18-.87-.38-1.07-.2-.21-.54-.45-1.06-.41l-92.74,5.42c-3.11.17-5.76-2.19-5.94-5.29-.18-3.1,2.19-5.76,5.29-5.94l92.74-5.42c3.66-.21,7.22,1.17,9.78,3.8,2.56,2.63,3.84,6.23,3.53,9.88l-1.32,15.37c-.49,5.66-4.95,10.22-10.53,10.89l-49.12,14.98Z"/>
      <path class="cls-1" d="M179.09,594.57c-2.59,0-4.92-1.8-5.49-4.44-2.9-13.42-2.7-65.3-2.69-67.5.01-3.1,2.53-5.6,5.62-5.6h.03c3.11.01,5.61,2.54,5.6,5.65-.07,14.66.24,54.92,2.44,65.07.66,3.04-1.27,6.03-4.31,6.68-.4.09-.8.13-1.19.13Z"/>
      <path class="cls-1" d="M149.46,597.15c-6.66,0-12.44-4.33-14.09-10.58-6.12-23.14-4.81-62.99-4.75-64.68.11-3.1,2.71-5.52,5.81-5.42,3.1.11,5.53,2.71,5.42,5.81-.01.4-1.31,39.88,4.38,61.41.34,1.28,1.69,2.2,3.22,2.2.01,0,.03,0,.04,0,13.92-.16,48.5-.87,68.89-4.09,1.49-.23,2.57-1.4,2.51-2.71-.49-12.06-.24-41.47-.09-59.05.05-5.92.09-10.59.09-13.04,0-3.11,2.52-5.62,5.62-5.62s5.62,2.52,5.62,5.62c0,2.5-.04,7.19-.09,13.14-.15,17.47-.4,46.71.08,58.49.29,7.01-4.87,13.15-11.99,14.28-21.12,3.34-56.35,4.07-70.52,4.23-.06,0-.11,0-.17,0Z"/>
      <path class="cls-1" d="M375.98,524.62l-49.12-14.98c-5.58-.68-10.04-5.23-10.53-10.89l-1.32-15.37c-.31-3.65.97-7.25,3.53-9.88,2.54-2.61,6.08-3.99,9.72-3.8l89.76,3.5c3.1.12,5.52,2.73,5.4,5.84-.12,3.1-2.76,5.51-5.84,5.4l-89.91-3.51c-.51-.04-.86.21-1.06.41-.2.2-.43.56-.38,1.07l1.32,15.37c.03.38.34.68.72.7l.68.04,47.21,14.4,35.77-9.76,1.48-9.77c.47-3.07,3.33-5.18,6.4-4.71,3.07.47,5.18,3.33,4.71,6.4l-1.65,10.88c-.71,4.7-4.59,8.14-9.23,8.39l-37.67,10.28Z"/>
      <path class="cls-1" d="M374.79,594.57c-.39,0-.79-.04-1.19-.13-3.04-.66-4.96-3.65-4.31-6.68,2.19-10.15,2.5-50.41,2.43-65.07-.01-3.11,2.49-5.63,5.6-5.65h.03c3.09,0,5.61,2.5,5.62,5.6.01,2.2.21,54.08-2.69,67.5-.57,2.64-2.9,4.44-5.49,4.44Z"/>
      <path class="cls-1" d="M404.42,597.15c-.06,0-.11,0-.17,0-14.17-.16-49.4-.89-70.52-4.23-7.12-1.13-12.28-7.26-11.99-14.28.48-11.78.23-41.02.08-58.49-.05-5.94-.09-10.64-.09-13.14,0-3.11,2.52-5.62,5.62-5.62s5.62,2.52,5.62,5.62c0,2.45.04,7.12.09,13.04.15,17.58.41,46.99-.09,59.05-.05,1.31,1.03,2.47,2.51,2.71,20.39,3.22,54.97,3.94,68.89,4.09.01,0,.03,0,.04,0,1.53,0,2.88-.92,3.22-2.2,5.69-21.53,4.4-61.02,4.38-61.41-.11-3.1,2.32-5.71,5.42-5.81.07,0,.13,0,.2,0,3.02,0,5.51,2.39,5.62,5.43.06,1.69,1.37,41.54-4.75,64.68-1.65,6.25-7.43,10.58-14.09,10.58Z"/>
      <path class="cls-1" d="M377.15,163.07c-.35,0-.7-.03-1.05-.1-3.05-.58-5.06-3.52-4.48-6.57,1.27-6.68,2.17-13.15,2.69-19.23.26-3.09,2.98-5.38,6.08-5.12,3.09.27,5.39,2.99,5.12,6.08-.55,6.46-1.51,13.31-2.85,20.36-.51,2.7-2.87,4.58-5.52,4.58Z"/>
      <path class="cls-1" d="M284.5,462.48c-2.62,0-4.96-1.84-5.5-4.5l-4.76-23.31c-.33-1.62-.96-2.87-1.74-3.43-37.03-26.72-45.84-120.04-46.2-124-.28-3.09,2-5.83,5.09-6.1,3.1-.28,5.83,2,6.11,5.09.02.23,2.18,23.61,8.57,49.71,8.25,33.67,19.66,56.55,33.01,66.18,3.12,2.25,5.26,5.82,6.17,10.3l4.76,23.31c.62,3.04-1.34,6.01-4.38,6.63-.38.08-.76.11-1.13.11Z"/>
      <path class="cls-1" d="M290.34,430.51c-1.62,0-3.23-.7-4.35-2.05-1.97-2.4-1.63-5.94.77-7.91,23.16-19.06,32.12-49.69,35.56-72.03,3.8-24.69,1.9-45.05,1.88-45.25-.3-3.09,1.96-5.84,5.05-6.14,3.08-.3,5.84,1.96,6.14,5.04.09.88,2.06,21.75-1.91,47.79-5.33,34.94-19.01,62.36-39.57,79.27-1.05.86-2.31,1.28-3.57,1.28Z"/>
      <path class="cls-1" d="M281.3,374.16c-19.73,0-32.56-6.05-33.37-6.44-2.8-1.35-3.96-4.72-2.61-7.51,1.35-2.79,4.71-3.96,7.5-2.62.3.14,27.04,12.51,62.03-1.21,2.89-1.14,6.15.29,7.29,3.18,1.13,2.89-.29,6.15-3.18,7.29-14.05,5.51-26.88,7.31-37.65,7.31Z"/>
      <path class="cls-1" d="M267.31,455.56c-1.69,0-3.35-.75-4.46-2.19l-30.83-40.05-60.77,9.61c-1.87.3-3.77-.37-5.04-1.77-1.27-1.4-1.76-3.35-1.28-5.19l24.81-95.87c.41-1.57,1.47-2.89,2.93-3.62l23.39-11.7c2.78-1.39,6.15-.26,7.55,2.51,1.39,2.78.27,6.16-2.51,7.55l-21.1,10.56-22.02,85.1,55.6-8.8c2.03-.33,4.08.49,5.33,2.12l32.86,42.7c1.89,2.46,1.43,5.99-1.03,7.89-1.02.79-2.23,1.17-3.43,1.17Z"/>
      <path class="cls-1" d="M304.42,442.91c-1.37,0-2.74-.49-3.82-1.5-2.28-2.11-2.42-5.67-.31-7.95l27.81-30.05c1.43-1.54,3.59-2.16,5.62-1.6l19.64,5.4c2.99.82,4.75,3.92,3.93,6.91-.82,3-3.92,4.75-6.91,3.93l-16.34-4.5-25.49,27.54c-1.11,1.2-2.62,1.8-4.13,1.8Z"/>
      <path class="cls-1" d="M366.53,385.49c-3.11,0-5.62-2.52-5.62-5.62v-59.47l-19.97-7.2c-2.92-1.05-4.44-4.28-3.38-7.2,1.05-2.92,4.28-4.43,7.2-3.38l23.69,8.54c2.23.8,3.71,2.92,3.71,5.29v63.42c0,3.11-2.52,5.62-5.62,5.62Z"/>
      <g>
        <g>
          <g>
            <path class="cls-4" d="M536.42,252.57c42.49-29.41,29.37-54.29,24.05-61.54-.83-1.13-2.51-1.12-3.34,0l-12.43,16.67-17.91,8.42-33.78-13.22c-2.44-.95-5.16.47-5.76,3.02,0,0-14.03,55.22-14.84,56.31l-104.01,138.25c-5.53,7.42-4,17.91,3.41,23.44h0c7.42,5.53,17.91,4,23.44-3.41l102.72-141.42c.81-1.09,38.44-26.52,38.44-26.52Z"/>
            <path class="cls-4" d="M497.43,204.64s18.33-37.51,45.21-27.02l-23.33,35.58-21.88-8.56Z"/>
            <path class="cls-1" d="M497.43,210.26c-.83,0-1.67-.18-2.46-.57-2.79-1.36-3.95-4.73-2.58-7.52.2-.42,5.08-10.3,13.57-18.92,12.09-12.28,25.49-16.04,38.74-10.87,1.6.63,2.83,1.95,3.33,3.6.5,1.65.22,3.43-.76,4.85l-18.17,26.15c-1.77,2.55-5.27,3.18-7.83,1.41-2.55-1.77-3.18-5.28-1.41-7.83l13.29-19.13c-17.93.11-30.52,25.38-30.66,25.67-.98,2-2.98,3.16-5.06,3.16Z"/>
            <path class="cls-1" d="M381.81,432.87c-4.65,0-9.34-1.44-13.35-4.43-4.79-3.57-7.9-8.8-8.76-14.71-.86-5.91.63-11.81,4.2-16.6l103.53-137.61c1.6-5.09,9.52-35.85,14.37-54.93.67-2.78,2.5-5.13,5.03-6.46,2.55-1.34,5.55-1.51,8.23-.46l31.53,12.34,14.45-6.79,11.59-15.54c1.45-1.95,3.76-3.1,6.19-3.1h.03c2.43,0,4.73,1.18,6.17,3.13,3.47,4.73,8.96,14.65,6.73,27.99-2.42,14.46-13.23,28.43-32.11,41.5-.02.01-.03.02-.05.03-12.96,8.76-33.94,23.06-37.44,25.72l-78.69,108.33c-1.82,2.51-5.34,3.07-7.85,1.24-2.51-1.82-3.07-5.34-1.24-7.85l79.09-108.89s.03-.04.04-.06c.71-.95,1.38-1.85,39.77-27.8,16.28-11.27,25.5-22.75,27.4-34.09,1.05-6.28-.37-11.49-2.15-15.21l-9.28,12.45c-.55.74-1.28,1.33-2.12,1.73l-17.91,8.42c-1.4.66-3,.71-4.44.15l-32.38-12.67c-.98,3.84-3.86,15.13-6.77,26.39-7.49,28.95-7.76,29.31-8.66,30.51l-104.02,138.27c-3.65,4.9-2.64,11.88,2.28,15.55,4.91,3.66,11.88,2.65,15.55-2.24l12.46-17.16c1.82-2.51,5.34-3.07,7.85-1.24,2.51,1.82,3.07,5.34,1.24,7.85l-12.49,17.19s-.03.04-.04.06c-4.39,5.88-11.13,8.99-17.96,8.99ZM492.73,207.22s0,0,0,0c0,0,0,0,0,0Z"/>
            <path class="cls-1" d="M520.72,254.53c.33-1.02-.23-2.13-1.25-2.46l-.69-.22c.24-.38.44-.79.55-1.24l3.61-14.78c.01-.05.01-.11.02-.16l1.37.46c1.36.45,2.84-.29,3.29-1.65s-.29-2.84-1.65-3.29l-28.44-9.43c-1.36-.45-2.84.29-3.29,1.65-.36,1.09.04,2.25.91,2.91.02.02.05.02.07.04-.23.37-.43.76-.54,1.2l-3.8,14.73c-.04.17-.07.34-.09.5-.97-.22-1.97.33-2.28,1.29-.27.82.04,1.68.69,2.17.17.12.36.22.56.29l13.25,4.3c.2.08.39.17.6.22.05.01.09.01.14.02l14.51,4.71c1.03.33,2.13-.23,2.46-1.25ZM514.72,233.82l-3.61,14.78c-.06.24-.09.49-.11.73l-2.43-.79c.07-.17.14-.34.19-.52l3.8-14.73c.09-.34.12-.69.12-1.03l2.31.77c-.12.25-.21.52-.28.79ZM499.06,244.39l3.8-14.73c.05-.21.07-.42.1-.62l2.1.7c-.31.42-.55.9-.69,1.44l-3.8,14.73s0,.02,0,.03l-1.88-.61c.16-.29.29-.6.38-.94Z"/>
          </g>
          <path class="cls-1" d="M379.01,414.17c-3.89-2.9-4.69-8.42-1.79-12.3,2.9-3.89,8.42-4.69,12.3-1.79,3.89,2.9,4.69,8.42,1.79,12.3-2.9,3.89-8.42,4.69-12.3,1.79Z"/>
        </g>
        <path class="cls-2" d="M514.77,386.21l.51-119.26-50.57-19.75s-14.54-1.01-16.72,13.84c0,0-16.58-3.32-19.68,18.87,0,0-15.54-4.35-12.64,18.72,0,0-13.3,6.04-7.47,20.1l14.81,10.12,18.03,27.15,3.83,29.86c34.41,26.9,56.18,10.45,69.91.35Z"/>
        <path class="cls-3" d="M522.03,374.15c-36.81,19.37-77.02,13.35-77.02,13.35l-2.12,32.6c-.01,4.01,2.84,7.45,6.78,8.18,14.64,2.72,49.65,6.46,72.65-13.89,2.53-2.24,3.77-5.6,3.31-8.95l-3.61-31.3Z"/>
        <path class="cls-3" d="M524.6,414.37c2.74,2.93,9.07,14.29,10.92,18.69,2.44,5.81,3.83,12,4.25,18.28l9.05,136.16c-1.53,29.83-18.55,45.25-30.18,52.36-6.71,4.1-14.49,6.17-22.35,5.97-21.65-.57-39.2-12.07-49.71-18.85-7.01-4.53-11.27-12.29-11.42-20.63l-2.7-144.83c-.03-1.39,0-2.77.17-4.15,1.58-13.15,5.39-31.06,5.39-31.06l54.45,1.18,32.13-13.13Z"/>
        <path class="cls-1" d="M473.58,396.45c-10.7,0-16.99-3.34-17.47-3.6l5.42-9.85-.06-.03c.68.35,17.02,8.5,43.79-8.25,2.63-1.65,6.1-.85,7.75,1.78,1.65,2.63.85,6.1-1.78,7.75-15.34,9.6-28.21,12.2-37.65,12.2Z"/>
        <path class="cls-1" d="M472.68,436.04c-9.91,0-18.5-1.21-24.03-2.23-6.61-1.23-11.39-7-11.38-13.72l.39-33.34c.04-3.08,2.55-5.56,5.62-5.56h.07c3.11.04,5.59,2.58,5.56,5.69l-.39,33.29c0,1.24.92,2.35,2.19,2.59,13.34,2.48,46.65,6.22,67.9-12.57,1.12-.99,1.67-2.48,1.47-3.97l-.02-.12-3.61-31.3c-.36-3.09,1.86-5.87,4.94-6.23,3.09-.36,5.87,1.86,6.23,4.94l3.6,31.24c.69,5.2-1.24,10.38-5.17,13.85-15.74,13.92-36.46,17.44-53.37,17.44Z"/>
        <path class="cls-1" d="M497.36,651.48c-.41,0-.82,0-1.23-.02-22.96-.6-41.28-12.43-52.22-19.49l-.39-.25c-8.57-5.53-13.81-14.97-14-25.25l-2.7-144.83c-.03-1.83.04-3.44.21-4.92,1.65-13.76,7.42-27.88,7.66-28.47,1.18-2.87,4.47-4.24,7.34-3.06,2.87,1.18,4.24,4.47,3.06,7.34h0c-.05.13-5.43,13.32-6.9,25.53-.12.98-.16,2.05-.14,3.38l2.7,144.83c.12,6.53,3.43,12.52,8.85,16.01l.4.25c9.95,6.43,26.61,17.18,46.41,17.7,6.81.17,13.48-1.6,19.27-5.14,11.75-7.18,26.02-21.25,27.48-47.53l-9.03-135.82c-.39-5.84-1.67-11.38-3.82-16.47-2.02-4.79-4.13-8.5-5.95-10.44-2.12-2.27-2.01-5.82.26-7.95,2.27-2.12,5.82-2.01,7.95.26,2.78,2.97,5.51,7.6,8.11,13.77,2.63,6.25,4.2,13.01,4.67,20.09l9.07,136.49-.02.33c-1.69,33.03-21.32,49.81-32.86,56.87-7.3,4.46-15.65,6.81-24.21,6.81Z"/>
        <path class="cls-1" d="M515.36,368.76h-.05c-3.11-.03-5.6-2.56-5.58-5.67l.7-82.29c-.24-5.33-3.54-10.15-8.43-12.3l-33.64-14.77c-3.22-1.41-6.83-1.22-9.68.52-1.55.95-2.69,2.05-3.37,3.28-1.5,2.72-4.93,3.7-7.64,2.2-2.72-1.5-3.7-4.92-2.2-7.64,1.63-2.96,4.11-5.46,7.35-7.44,5.98-3.65,13.48-4.11,20.06-1.22l33.64,14.77c8.85,3.89,14.8,12.64,15.15,22.3v.13s0,.13,0,.13l-.7,82.42c-.03,3.09-2.54,5.58-5.62,5.58Z"/>
        <path class="cls-1" d="M485.68,286.99c-.86,0-1.74-.2-2.56-.62l-38.34-19.67c-2.31-1.18-5.01-1.16-6.9.07-1.44.94-2.16,2.25-2.36,4.24-.3,3.09-3.06,5.36-6.13,5.06-3.09-.3-5.36-3.04-5.06-6.13.52-5.41,3.08-9.77,7.4-12.59,5.28-3.45,12.25-3.7,18.17-.66l38.34,19.67c2.76,1.42,3.85,4.81,2.44,7.57-1,1.94-2.97,3.06-5.01,3.06Z"/>
        <path class="cls-1" d="M468.87,306.11c-.86,0-1.74-.2-2.56-.62l-38.34-19.67c-2.31-1.18-5.02-1.16-6.9.07-.87.57-3.18,2.08-2.14,8.07.53,3.06-1.52,5.97-4.57,6.5-3.06.54-5.97-1.51-6.5-4.57-2.01-11.56,3.57-17.12,7.07-19.41,5.28-3.45,12.25-3.7,18.18-.66l38.34,19.67c2.76,1.42,3.85,4.81,2.44,7.57-1,1.94-2.97,3.06-5.01,3.06Z"/>
        <path class="cls-1" d="M413.66,332.72c-1.56,0-3.11-.64-4.22-1.9-8.07-9.14-8.98-16.88-8.32-21.76.82-6.07,4.31-10.31,7.3-12.27,5.09-3.32,11.8-3.57,17.5-.64l36.28,18.61c2.76,1.42,3.85,4.81,2.44,7.57-1.42,2.76-4.8,3.85-7.57,2.44l-36.28-18.61c-2.09-1.07-4.53-1.05-6.22.05-.49.32-1.95,1.8-2.3,4.36-.5,3.66,1.44,8.09,5.6,12.8,2.06,2.33,1.84,5.88-.49,7.94-1.07.94-2.4,1.41-3.72,1.41Z"/>
        <path class="cls-1" d="M445.82,379.2c-2.47,0-4.74-1.64-5.42-4.15l-4.79-17.58c-.12-.47-1.11-1.35-1.9-2.06-1.04-.94-2.23-2-3.3-3.43-7.45-9.85-10.59-20.57-10.72-21.02-.86-2.98.86-6.1,3.85-6.96,2.98-.86,6.09.86,6.96,3.84h0c.03.09,2.74,9.23,8.88,17.36.43.56,1.12,1.18,1.85,1.84,1.8,1.62,4.28,3.84,5.25,7.52l4.78,17.53c.82,3-.95,6.09-3.95,6.9-.49.13-.99.2-1.48.2Z"/>
      </g>
      <g>
        <path class="cls-2" d="M39.79,382.66l-.44-119.26,50.58-19.72s14.54-1,16.72,13.85c0,0,16.58-3.31,19.67,18.88,0,0,15.54-4.34,12.63,18.73,0,0,13.3,6.05,7.46,20.1l-14.81,10.11-18.05,27.14-3.84,29.86c-34.42,26.88-56.19,10.42-69.91.31Z"/>
        <path class="cls-3" d="M32.54,370.59c36.8,19.4,77.01,13.4,77.01,13.4l2.1,32.6c0,4.01-2.84,7.45-6.79,8.18-14.64,2.71-49.66,6.43-72.64-13.93-2.53-2.24-3.77-5.6-3.31-8.95l3.62-31.29Z"/>
        <path class="cls-3" d="M29.95,410.81c-2.75,2.92-9.08,14.29-10.93,18.69-2.45,5.8-3.84,12-4.26,18.28l-9.13,136.15c1.51,29.83,18.53,45.26,30.15,52.38,6.71,4.11,14.49,6.18,22.35,5.98,21.65-.55,39.21-12.04,49.72-18.82,7.02-4.52,11.28-12.28,11.44-20.63l2.79-144.83c.03-1.39,0-2.77-.17-4.15-1.57-13.16-5.38-31.06-5.38-31.06l-54.46,1.15-32.12-13.15Z"/>
        <path class="cls-1" d="M81,392.92c-9.44,0-22.32-2.6-37.67-12.22-2.63-1.65-3.43-5.12-1.78-7.75,1.65-2.63,5.12-3.43,7.75-1.78,26.75,16.75,43.56,8.39,43.73,8.3,2.72-1.5,6.14-.5,7.64,2.22,1.5,2.72.5,6.14-2.22,7.64-.48.26-6.76,3.59-17.44,3.59Z"/>
        <path class="cls-1" d="M81.93,432.51c-16.93,0-37.68-3.52-53.44-17.47-3.93-3.48-5.85-8.65-5.16-13.86l3.62-31.24c.36-3.09,3.14-5.3,6.23-4.94,3.08.36,5.3,3.15,4.94,6.23l-3.64,31.41c-.21,1.49.34,2.98,1.47,3.97,21.23,18.8,54.55,15.08,67.89,12.61,1.27-.24,2.19-1.34,2.19-2.64l-.37-33.24c-.03-3.11,2.45-5.65,5.56-5.69h.06c3.08,0,5.59,2.48,5.62,5.56l.37,33.29c.02,6.77-4.77,12.54-11.38,13.77-5.51,1.02-14.08,2.22-23.96,2.22Z"/>
        <path class="cls-1" d="M57.08,647.93c-8.57,0-16.92-2.35-24.23-6.82-11.54-7.07-31.16-23.86-32.83-56.89l-.02-.33.02-.33,9.13-136.15c.47-7.08,2.05-13.84,4.69-20.09,2.6-6.16,5.33-10.79,8.11-13.76,2.12-2.27,5.68-2.38,7.95-.25,2.26,2.12,2.38,5.68.25,7.95-1.82,1.94-3.93,5.64-5.95,10.43-2.15,5.1-3.44,10.64-3.83,16.47l-9.11,135.82c1.44,26.28,15.71,40.35,27.45,47.54,5.79,3.55,12.47,5.34,19.27,5.15,19.81-.51,36.47-11.25,46.42-17.67l.39-.25c5.42-3.5,8.74-9.48,8.86-16.01l2.79-144.83c.03-1.33-.02-2.4-.13-3.37-1.46-12.25-6.83-25.4-6.88-25.53-1.18-2.87.19-6.16,3.06-7.34,2.87-1.18,6.16.19,7.34,3.06.24.59,6.01,14.71,7.65,28.47.18,1.5.25,3.06.21,4.92l-2.79,144.83c-.2,10.28-5.44,19.72-14.01,25.24l-.39.25c-10.95,7.06-29.27,18.88-52.23,19.46-.4.01-.8.02-1.2.02Z"/>
        <path class="cls-1" d="M39.21,365.2c-3.08,0-5.6-2.49-5.62-5.58l-.65-82.55v-.13c.37-9.66,6.32-18.41,15.17-22.29l33.65-14.75c6.58-2.89,14.08-2.43,20.06,1.23,3.24,1.98,5.71,4.49,7.34,7.44,1.5,2.72.51,6.14-2.2,7.64-2.72,1.5-6.14.51-7.64-2.2-.68-1.23-1.81-2.33-3.37-3.28-2.84-1.74-6.46-1.94-9.68-.53l-33.65,14.75c-4.89,2.14-8.19,6.96-8.44,12.29l.65,82.29c.02,3.11-2.47,5.64-5.58,5.67h-.05Z"/>
        <path class="cls-1" d="M68.94,283.46c-2.04,0-4.01-1.12-5.01-3.06-1.42-2.76-.32-6.15,2.44-7.57l38.35-19.64c5.93-3.04,12.89-2.78,18.17.67,4.32,2.83,6.88,7.18,7.4,12.59.29,3.09-1.97,5.84-5.06,6.13-3.09.29-5.84-1.97-6.13-5.06-.19-2-.92-3.31-2.35-4.25-1.88-1.23-4.59-1.26-6.89-.07l-38.35,19.64c-.82.42-1.7.62-2.56.62Z"/>
        <path class="cls-1" d="M85.74,302.58c-2.04,0-4.01-1.12-5.01-3.06-1.42-2.76-.32-6.15,2.44-7.57l38.35-19.64c5.93-3.04,12.9-2.78,18.17.67,3.5,2.29,9.08,7.86,7.06,19.42-.53,3.06-3.45,5.11-6.51,4.57-3.06-.53-5.11-3.45-4.57-6.51,1.05-5.99-1.27-7.5-2.14-8.07-1.88-1.23-4.59-1.26-6.9-.07l-38.35,19.64c-.82.42-1.7.62-2.56.62Z"/>
        <path class="cls-1" d="M140.94,329.22c-1.32,0-2.65-.46-3.72-1.41-2.33-2.06-2.54-5.61-.49-7.94,4.17-4.71,6.11-9.14,5.61-12.8-.34-2.56-1.81-4.04-2.3-4.36-1.69-1.1-4.13-1.13-6.22-.05l-36.29,18.59c-2.76,1.42-6.15.32-7.57-2.44-1.42-2.76-.32-6.15,2.44-7.57l36.29-18.59c5.71-2.92,12.41-2.68,17.5.65,2.99,1.95,6.47,6.2,7.29,12.27.66,4.88-.25,12.62-8.33,21.75-1.11,1.26-2.66,1.9-4.21,1.9Z"/>
        <path class="cls-1" d="M108.75,375.69c-.49,0-.99-.06-1.48-.2-3-.82-4.76-3.91-3.94-6.91l4.8-17.57c.96-3.63,3.43-5.85,5.24-7.47.73-.66,1.42-1.28,1.85-1.84,6.15-8.13,8.87-17.26,8.89-17.35.87-2.98,3.99-4.69,6.97-3.83,2.98.87,4.7,3.97,3.83,6.95-.13.45-3.28,11.16-10.73,21.01-1.08,1.42-2.26,2.49-3.31,3.43-.79.71-1.78,1.6-1.89,2.02l-4.81,17.62c-.68,2.5-2.95,4.14-5.42,4.14Z"/>
      </g>
      <path class="cls-1" d="M282.89,701.84h-.05c-3.11-.03-5.6-2.56-5.58-5.67l1.78-221.95c.02-3.09,2.54-5.58,5.62-5.58h.05c3.11.03,5.6,2.56,5.58,5.67l-1.78,221.95c-.02,3.09-2.54,5.58-5.62,5.58Z"/>
      <path class="cls-1" d="M124.7,365.41c-1.4,0-2.81-.52-3.9-1.57-2.24-2.15-2.31-5.7-.16-7.94.91-.94,22.59-23.22,55.75-31.92,3-.79,6.08,1.01,6.87,4.01.79,3-1.01,6.08-4.01,6.87-30,7.86-50.3,28.63-50.5,28.83-1.1,1.14-2.58,1.72-4.05,1.72Z"/>
      <path class="cls-1" d="M406.56,342.89c-.94,0-1.89-.24-2.77-.73-8.8-4.99-17.48-8.62-25.8-10.81-3-.79-4.8-3.86-4.01-6.87.79-3,3.86-4.8,6.87-4.01,9.27,2.43,18.85,6.43,28.5,11.9,2.7,1.53,3.65,4.96,2.12,7.66-1.04,1.83-2.94,2.85-4.9,2.85Z"/>
      <path class="cls-1" d="M229.62,149.6c-2.02,0-3.94-1.2-4.77-3.19-1.1-2.64.16-5.67,2.8-6.77.53-.22,13.18-5.36,28.42-.47,2.72.87,4.22,3.79,3.34,6.51-.87,2.72-3.79,4.22-6.51,3.34-11.49-3.69-21.2.14-21.3.18-.65.27-1.32.4-1.98.4Z"/>
      <path class="cls-1" d="M304.75,148.66c-2.14,0-4.14-1.33-4.88-3.47-.94-2.7.48-5.65,3.18-6.59,15.11-5.29,27.89-.47,28.42-.26,2.67,1.03,3.99,4.03,2.96,6.69-1.03,2.66-4.01,3.98-6.67,2.97-.22-.08-9.98-3.59-21.3.37-.56.2-1.14.29-1.71.29Z"/>
    </g>
  </g>
</svg>